<mxfile host="app.diagrams.net" modified="2021-02-09T21:50:49.203Z" agent="5.0 (X11)" etag="2GhS_QPLXM49RI7KBPQ8" version="14.3.0" type="github">
  <diagram id="prtHgNgQTEPvFCAcTncT" name="Page-1">
    <mxGraphModel dx="1695" dy="403" grid="1" gridSize="10" guides="1" tooltips="1" connect="1" arrows="1" fold="1" page="1" pageScale="1" pageWidth="827" pageHeight="1169" math="0" shadow="0">
      <root>
        <mxCell id="0" />
        <mxCell id="1" parent="0" />
        <mxCell id="Pk6evC-Eu62JFVYQJx-g-5" value="Actor" style="shape=umlActor;verticalLabelPosition=bottom;verticalAlign=top;html=1;outlineConnect=0;" vertex="1" parent="1">
          <mxGeometry x="30" y="120" width="30" height="60" as="geometry" />
        </mxCell>
        <mxCell id="Pk6evC-Eu62JFVYQJx-g-9" value="" style="edgeStyle=orthogonalEdgeStyle;rounded=0;orthogonalLoop=1;jettySize=auto;html=1;" edge="1" parent="1" source="Pk6evC-Eu62JFVYQJx-g-6" target="Pk6evC-Eu62JFVYQJx-g-7">
          <mxGeometry relative="1" as="geometry" />
        </mxCell>
        <mxCell id="Pk6evC-Eu62JFVYQJx-g-6" value="www.google.com" style="shape=parallelogram;perimeter=parallelogramPerimeter;whiteSpace=wrap;html=1;fixedSize=1;" vertex="1" parent="1">
          <mxGeometry x="70" y="130" width="120" height="60" as="geometry" />
        </mxCell>
        <mxCell id="Pk6evC-Eu62JFVYQJx-g-12" style="edgeStyle=orthogonalEdgeStyle;rounded=0;orthogonalLoop=1;jettySize=auto;html=1;exitX=0.5;exitY=1;exitDx=0;exitDy=0;exitPerimeter=0;entryX=0.5;entryY=0;entryDx=0;entryDy=0;fontFamily=Verdana;" edge="1" parent="1" source="Pk6evC-Eu62JFVYQJx-g-7" target="Pk6evC-Eu62JFVYQJx-g-10">
          <mxGeometry relative="1" as="geometry" />
        </mxCell>
        <mxCell id="Pk6evC-Eu62JFVYQJx-g-7" value="Dns" style="shape=cylinder3;whiteSpace=wrap;html=1;boundedLbl=1;backgroundOutline=1;size=15;fontFamily=Verdana;" vertex="1" parent="1">
          <mxGeometry x="270" y="140" width="60" height="100" as="geometry" />
        </mxCell>
        <mxCell id="Pk6evC-Eu62JFVYQJx-g-13" value="Erro 404" style="edgeStyle=orthogonalEdgeStyle;rounded=0;orthogonalLoop=1;jettySize=auto;html=1;exitX=0;exitY=0.5;exitDx=0;exitDy=0;fontFamily=Verdana;" edge="1" parent="1" source="Pk6evC-Eu62JFVYQJx-g-10">
          <mxGeometry relative="1" as="geometry">
            <mxPoint x="20" y="210" as="targetPoint" />
          </mxGeometry>
        </mxCell>
        <mxCell id="Pk6evC-Eu62JFVYQJx-g-52" style="edgeStyle=orthogonalEdgeStyle;rounded=0;orthogonalLoop=1;jettySize=auto;html=1;fontFamily=Verdana;entryX=0;entryY=0.25;entryDx=0;entryDy=0;" edge="1" parent="1" source="Pk6evC-Eu62JFVYQJx-g-10" target="Pk6evC-Eu62JFVYQJx-g-23">
          <mxGeometry relative="1" as="geometry">
            <mxPoint x="290" y="320" as="targetPoint" />
          </mxGeometry>
        </mxCell>
        <mxCell id="Pk6evC-Eu62JFVYQJx-g-10" value="" style="rhombus;whiteSpace=wrap;html=1;" vertex="1" parent="1">
          <mxGeometry x="70" y="340" width="110" height="60" as="geometry" />
        </mxCell>
        <mxCell id="Pk6evC-Eu62JFVYQJx-g-14" value="serv1" style="rounded=1;whiteSpace=wrap;html=1;fontFamily=Verdana;" vertex="1" parent="1">
          <mxGeometry x="480" y="210" width="90" height="60" as="geometry" />
        </mxCell>
        <mxCell id="Pk6evC-Eu62JFVYQJx-g-15" value="serv2" style="rounded=1;whiteSpace=wrap;html=1;fontFamily=Verdana;" vertex="1" parent="1">
          <mxGeometry x="480" y="300" width="90" height="60" as="geometry" />
        </mxCell>
        <mxCell id="Pk6evC-Eu62JFVYQJx-g-26" style="edgeStyle=orthogonalEdgeStyle;rounded=0;orthogonalLoop=1;jettySize=auto;html=1;fontFamily=Verdana;exitX=0.5;exitY=1;exitDx=0;exitDy=0;" edge="1" parent="1" source="Pk6evC-Eu62JFVYQJx-g-23" target="Pk6evC-Eu62JFVYQJx-g-16">
          <mxGeometry relative="1" as="geometry">
            <Array as="points">
              <mxPoint x="375" y="410" />
            </Array>
          </mxGeometry>
        </mxCell>
        <mxCell id="Pk6evC-Eu62JFVYQJx-g-16" value="serv3" style="rounded=1;whiteSpace=wrap;html=1;fontFamily=Verdana;" vertex="1" parent="1">
          <mxGeometry x="480" y="380" width="90" height="60" as="geometry" />
        </mxCell>
        <mxCell id="Pk6evC-Eu62JFVYQJx-g-23" value="load balanc" style="rounded=0;whiteSpace=wrap;html=1;fontFamily=Verdana;" vertex="1" parent="1">
          <mxGeometry x="300" y="310" width="90" height="40" as="geometry" />
        </mxCell>
        <mxCell id="Pk6evC-Eu62JFVYQJx-g-25" style="edgeStyle=orthogonalEdgeStyle;rounded=0;orthogonalLoop=1;jettySize=auto;html=1;fontFamily=Verdana;verticalAlign=middle;horizontal=1;textDirection=rtl;" edge="1" parent="1" source="Pk6evC-Eu62JFVYQJx-g-23" target="Pk6evC-Eu62JFVYQJx-g-14">
          <mxGeometry relative="1" as="geometry">
            <Array as="points">
              <mxPoint x="375" y="250" />
              <mxPoint x="474" y="250" />
            </Array>
          </mxGeometry>
        </mxCell>
        <mxCell id="Pk6evC-Eu62JFVYQJx-g-31" value="google" style="shape=cylinder3;whiteSpace=wrap;html=1;boundedLbl=1;backgroundOutline=1;size=15;fontFamily=Verdana;" vertex="1" parent="1">
          <mxGeometry x="620" y="230" width="140" height="160" as="geometry" />
        </mxCell>
        <mxCell id="Pk6evC-Eu62JFVYQJx-g-46" value="" style="endArrow=classic;startArrow=classic;html=1;fontFamily=Verdana;" edge="1" parent="1" source="Pk6evC-Eu62JFVYQJx-g-15" target="Pk6evC-Eu62JFVYQJx-g-31">
          <mxGeometry width="50" height="50" relative="1" as="geometry">
            <mxPoint x="570" y="340" as="sourcePoint" />
            <mxPoint x="620" y="290" as="targetPoint" />
          </mxGeometry>
        </mxCell>
        <mxCell id="Pk6evC-Eu62JFVYQJx-g-47" value="" style="endArrow=classic;startArrow=classic;html=1;fontFamily=Verdana;" edge="1" parent="1" target="Pk6evC-Eu62JFVYQJx-g-31">
          <mxGeometry width="50" height="50" relative="1" as="geometry">
            <mxPoint x="570" y="413.03272727272724" as="sourcePoint" />
            <mxPoint x="620" y="410.00242424242424" as="targetPoint" />
          </mxGeometry>
        </mxCell>
        <mxCell id="Pk6evC-Eu62JFVYQJx-g-50" value="" style="endArrow=classic;startArrow=classic;html=1;fontFamily=Verdana;" edge="1" parent="1" target="Pk6evC-Eu62JFVYQJx-g-31">
          <mxGeometry width="50" height="50" relative="1" as="geometry">
            <mxPoint x="560" y="270" as="sourcePoint" />
            <mxPoint x="610" y="220" as="targetPoint" />
            <Array as="points">
              <mxPoint x="610" y="280" />
            </Array>
          </mxGeometry>
        </mxCell>
        <mxCell id="Pk6evC-Eu62JFVYQJx-g-27" style="edgeStyle=orthogonalEdgeStyle;rounded=0;orthogonalLoop=1;jettySize=auto;html=1;fontFamily=Verdana;exitX=1;exitY=0.25;exitDx=0;exitDy=0;" edge="1" parent="1" source="Pk6evC-Eu62JFVYQJx-g-23" target="Pk6evC-Eu62JFVYQJx-g-15">
          <mxGeometry relative="1" as="geometry">
            <Array as="points">
              <mxPoint x="390" y="320" />
            </Array>
          </mxGeometry>
        </mxCell>
      </root>
    </mxGraphModel>
  </diagram>
</mxfile>
